<?xml version="1.0" standalone="no"?>
<!DOCTYPE svg PUBLIC "-//W3C//DTD SVG 20010904//EN"
 "http://www.w3.org/TR/2001/REC-SVG-20010904/DTD/svg10.dtd">
<svg version="1.0" xmlns="http://www.w3.org/2000/svg"
 width="512.000000pt" height="512.000000pt" viewBox="0 0 512.000000 512.000000"
 preserveAspectRatio="xMidYMid meet">

<g transform="translate(0.000000,512.000000) scale(0.100000,-0.100000)"
fill="#000000" stroke="none">
<path d="M2321 5110 c-313 -31 -610 -116 -900 -261 -261 -129 -470 -281 -678
-491 -209 -211 -346 -404 -478 -673 -126 -255 -197 -484 -242 -775 -24 -161
-24 -539 0 -700 45 -291 116 -520 241 -775 134 -272 283 -480 498 -692 211
-209 404 -346 673 -478 255 -126 484 -197 775 -242 161 -24 539 -24 700 0 281
44 515 115 756 231 269 130 461 264 673 471 231 226 378 427 517 710 125 255
196 484 241 775 24 161 24 539 0 700 -45 291 -116 520 -241 775 -134 272 -283
480 -498 692 -211 209 -404 346 -673 478 -252 124 -486 197 -765 240 -126 19
-468 27 -599 15z m-391 -1585 c19 -9 171 -153 337 -318 l303 -302 287 286
c159 158 304 295 323 305 47 25 191 27 235 2 115 -63 169 -198 130 -319 -16
-50 -41 -78 -306 -344 -159 -160 -289 -295 -289 -300 0 -6 135 -145 301 -310
330 -329 349 -353 349 -455 0 -186 -199 -315 -365 -236 -38 18 -121 95 -350
325 -165 166 -304 301 -310 301 -5 0 -156 -146 -335 -324 -308 -307 -328 -325
-379 -340 -68 -20 -94 -20 -160 0 -102 30 -181 135 -181 240 0 115 3 119 359
477 l325 327 -301 303 c-165 166 -309 317 -318 336 -64 127 4 296 141 351 59
24 151 22 204 -5z"/>
</g>
</svg>
