<?xml version="1.0" standalone="no"?>
<!DOCTYPE svg PUBLIC "-//W3C//DTD SVG 20010904//EN"
 "http://www.w3.org/TR/2001/REC-SVG-20010904/DTD/svg10.dtd">
<svg version="1.0" xmlns="http://www.w3.org/2000/svg"
 width="512.000000pt" height="512.000000pt" viewBox="0 0 512.000000 512.000000"
 preserveAspectRatio="xMidYMid meet">

<g transform="translate(0.000000,512.000000) scale(0.100000,-0.100000)"
fill="#000000" stroke="none">
<path d="M2470 5113 c-22 -4 -1011 -268 -1815 -484 -143 -39 -282 -80 -310
-93 -118 -54 -222 -158 -282 -281 -46 -93 -58 -149 -57 -265 l0 -105 378
-1405 c207 -773 387 -1436 398 -1474 55 -176 199 -319 385 -382 64 -22 96 -27
178 -27 91 -1 120 5 310 56 116 31 216 57 222 57 7 0 12 -41 15 -117 3 -95 9
-132 31 -192 63 -176 189 -300 384 -374 l58 -22 1105 -3 c1228 -3 1176 -6
1320 64 55 26 93 54 149 112 88 88 132 165 161 278 19 72 20 112 20 615 l0
539 -28 31 c-38 43 -101 45 -140 5 l-27 -26 -5 -558 c-5 -524 -6 -560 -25
-605 -41 -99 -132 -191 -232 -232 -47 -19 -78 -20 -1132 -23 -1181 -3 -1148
-4 -1246 53 -60 36 -132 115 -163 183 l-27 57 0 1555 0 1555 32 66 c40 82 111
150 201 192 l67 32 1070 3 c770 2 1087 0 1130 -8 128 -25 230 -105 288 -228
l32 -67 5 -583 5 -584 28 -24 c38 -33 96 -33 134 0 l28 24 3 564 c3 630 2 645
-65 781 -45 89 -160 207 -248 254 -134 70 -99 67 -839 73 l-670 5 -83 310
c-46 170 -94 332 -107 360 -68 147 -211 269 -375 321 -48 15 -217 26 -261 17z
m243 -223 c70 -26 162 -108 199 -177 15 -26 58 -167 97 -313 40 -146 74 -273
77 -282 5 -17 -15 -18 -323 -18 -369 0 -421 -7 -538 -64 -121 -60 -212 -150
-272 -268 -66 -130 -63 -60 -63 -1521 l0 -1324 -232 -61 c-281 -73 -300 -76
-374 -63 -124 23 -236 105 -287 211 -15 32 -185 647 -412 1495 -369 1377 -386
1443 -382 1510 2 39 14 96 27 128 26 70 108 162 177 199 29 16 220 72 483 143
239 64 602 161 805 216 204 54 469 126 590 159 250 68 317 73 428 30z"/>
<path d="M4993 2123 c-12 -2 -34 -18 -49 -36 -22 -26 -25 -38 -21 -71 16 -116
178 -116 194 0 5 36 1 45 -23 72 -30 31 -62 42 -101 35z"/>
</g>
</svg>
