<?xml version="1.0" standalone="no"?>
<!DOCTYPE svg PUBLIC "-//W3C//DTD SVG 20010904//EN"
 "http://www.w3.org/TR/2001/REC-SVG-20010904/DTD/svg10.dtd">
<svg version="1.0" xmlns="http://www.w3.org/2000/svg"
 width="50.000000pt" height="50.000000pt" viewBox="0 0 50.000000 50.000000"
 preserveAspectRatio="xMidYMid meet">

<g transform="translate(0.000000,50.000000) scale(0.100000,-0.100000)"
fill="#000000" stroke="none">
<path d="M138 438 c-34 -20 -38 -26 -38 -63 0 -36 -4 -43 -35 -59 -32 -18 -35
-23 -35 -66 0 -43 3 -48 35 -66 31 -17 35 -23 35 -59 0 -38 3 -43 40 -64 l41
-23 34 21 35 20 35 -20 34 -21 41 23 c37 21 40 26 40 64 0 36 4 42 35 59 32
18 35 23 35 66 0 44 -2 48 -40 69 l-41 23 -34 -21 c-33 -19 -36 -19 -65 -3
-25 14 -30 23 -30 58 0 36 -4 42 -39 62 -21 12 -40 22 -42 22 -2 0 -21 -10
-41 -22z m77 -20 c20 -9 25 -18 25 -47 0 -29 -6 -39 -30 -53 -28 -16 -32 -16
-60 0 -24 14 -30 24 -30 53 0 27 5 39 23 47 29 14 41 14 72 0z m-70 -120 c20
-9 25 -18 25 -48 0 -32 -4 -39 -30 -50 -24 -10 -36 -10 -60 0 -26 11 -30 18
-30 50 0 28 5 39 23 48 29 14 41 14 72 0z m140 0 c20 -9 25 -18 25 -48 0 -32
-4 -39 -30 -50 -24 -10 -36 -10 -60 0 -26 11 -30 18 -30 50 0 28 5 39 23 48
29 14 41 14 72 0z m140 0 c20 -9 25 -18 25 -48 0 -32 -4 -39 -30 -50 -24 -10
-36 -10 -60 0 -26 11 -30 18 -30 50 0 28 5 39 23 48 29 14 41 14 72 0z m-212
-117 c22 -12 27 -21 27 -51 0 -32 -4 -39 -30 -50 -24 -10 -36 -10 -60 0 -26
11 -30 18 -30 49 0 29 6 39 28 53 15 9 29 15 32 14 3 -1 17 -8 33 -15z m140 0
c22 -12 27 -21 27 -51 0 -32 -4 -39 -30 -50 -24 -10 -36 -10 -60 0 -26 11 -30
18 -30 49 0 29 6 39 28 53 15 9 29 15 32 14 3 -1 17 -8 33 -15z"/>
<path d="M153 403 c-22 -8 -16 -61 7 -68 35 -11 60 3 60 35 0 34 -29 49 -67
33z"/>
<path d="M83 283 c-22 -8 -16 -61 7 -68 35 -11 60 3 60 35 0 34 -29 49 -67 33z"/>
<path d="M223 283 c-22 -8 -16 -61 7 -68 35 -11 60 3 60 35 0 34 -29 49 -67
33z"/>
<path d="M363 283 c-22 -8 -16 -61 7 -68 35 -11 60 3 60 35 0 34 -29 49 -67
33z"/>
<path d="M153 163 c-22 -8 -16 -61 7 -68 35 -11 60 3 60 35 0 34 -29 49 -67
33z"/>
<path d="M293 163 c-22 -8 -16 -61 7 -68 35 -11 60 3 60 35 0 34 -29 49 -67
33z"/>
</g>
</svg>
